<svg xmlns="http://www.w3.org/2000/svg" xmlns:xlink="http://www.w3.org/1999/xlink" width="114" height="114" viewBox="0 0 114 114">
  <defs>
    <filter id="Rectangle_2482" x="0" y="0" width="89" height="89" filterUnits="userSpaceOnUse">
      <feOffset dy="3" input="SourceAlpha"/>
      <feGaussianBlur stdDeviation="7.5" result="blur"/>
      <feFlood flood-opacity="0.114"/>
      <feComposite operator="in" in2="blur"/>
      <feComposite in="SourceGraphic"/>
    </filter>
    <filter id="Path_3055" x="0" y="0" width="114" height="114" filterUnits="userSpaceOnUse">
      <feOffset dy="3" input="SourceAlpha"/>
      <feGaussianBlur stdDeviation="7.5" result="blur-2"/>
      <feFlood flood-opacity="0.114"/>
      <feComposite operator="in" in2="blur-2"/>
      <feComposite in="SourceGraphic"/>
    </filter>
    <clipPath id="clip-path">
      <rect id="Rectangle_28485" data-name="Rectangle 28485" width="32" height="32" fill="none"/>
    </clipPath>
  </defs>
  <g id="Component_128_270" data-name="Component 128 – 270" transform="translate(22.5 19.5)">
    <g id="Group_6961" data-name="Group 6961" transform="translate(-293 -77)">
      <g transform="matrix(1, 0, 0, 1, 270.5, 57.5)" filter="url(#Path_3055)">
        <path id="Path_3055-2" data-name="Path 3055" d="M34.5,0A34.5,34.5,0,1,1,0,34.5,34.5,34.5,0,0,1,34.5,0Z" transform="translate(22.5 19.5)" fill="#853dd6"/>
      </g>
      <circle id="Ellipse_1446" data-name="Ellipse 1446" cx="34.5" cy="34.5" r="34.5" transform="translate(293 77)" fill="none"/>
    </g>
    <g id="Group_52112" data-name="Group 52112" transform="translate(14253 -18552)">
      <rect id="Rectangle_28454" data-name="Rectangle 28454" width="38" height="38" transform="translate(-14237 18568)" fill="#fff" opacity="0"/>
      <g id="Group_52169" data-name="Group 52169" transform="translate(-14234 18571)">
        <g id="Group_52168" data-name="Group 52168" clip-path="url(#clip-path)">
          <path id="Path_85584" data-name="Path 85584" d="M278.973,259.426a1.5,1.5,0,1,1-1.5-1.5,1.5,1.5,0,0,1,1.5,1.5" transform="translate(-252.975 -236.426)" fill="#fff"/>
          <path id="Path_85585" data-name="Path 85585" d="M81.026,259.427a1.5,1.5,0,1,1-1.5-1.5,1.5,1.5,0,0,1,1.5,1.5" transform="translate(-71.524 -236.427)" fill="#fff"/>
          <path id="Path_85586" data-name="Path 85586" d="M177,19.492a1.5,1.5,0,1,1-1.5-1.5,1.5,1.5,0,0,1,1.5,1.5" transform="translate(-159.501 -16.492)" fill="#fff"/>
          <path id="Path_85587" data-name="Path 85587" d="M30.214,16a21.1,21.1,0,0,0,1.267-3.513c1.1-4.234.44-7.829-1.851-10.121A8.707,8.707,0,0,0,23.3,0a15.5,15.5,0,0,0-4.231.637,3.861,3.861,0,0,1,.755,1.735,13.421,13.421,0,0,1,3.476-.5A6.885,6.885,0,0,1,28.3,3.692c1.8,1.8,2.286,4.759,1.362,8.325a18.331,18.331,0,0,1-.579,1.821,30.477,30.477,0,0,0-4.779-6.149,31.263,31.263,0,0,0-4.546-3.768,3.868,3.868,0,0,1-.883,1.668,29.42,29.42,0,0,1,4.1,3.425A27.832,27.832,0,0,1,28.134,16a25.505,25.505,0,0,1-2.114,3.437,3.9,3.9,0,0,1,1.493,1.134,28.533,28.533,0,0,0,1.575-2.409,18.306,18.306,0,0,1,.579,1.821c.924,3.565.44,6.522-1.362,8.325A6.885,6.885,0,0,1,23.3,30.125a14.785,14.785,0,0,1-5.139-1.035,29.638,29.638,0,0,0,4.119-2.916,3.9,3.9,0,0,1-1.231-1.415A26.905,26.905,0,0,1,16,28.132a26.7,26.7,0,0,1-4.706-3.092,3.9,3.9,0,0,1-1.356,1.314,29.553,29.553,0,0,0,3.9,2.735A14.792,14.792,0,0,1,8.7,30.125a6.886,6.886,0,0,1-5.007-1.817c-1.8-1.8-2.286-4.759-1.362-8.325a18.306,18.306,0,0,1,.579-1.821A28.623,28.623,0,0,0,4.74,20.914a3.9,3.9,0,0,1,1.372-1.295A25.675,25.675,0,0,1,3.866,16a27.846,27.846,0,0,1,5.15-6.985,29.423,29.423,0,0,1,4.1-3.425,3.868,3.868,0,0,1-.883-1.668A31.269,31.269,0,0,0,7.691,7.689a30.482,30.482,0,0,0-4.779,6.149,18.216,18.216,0,0,1-.578-1.821C1.409,8.451,1.892,5.495,3.7,3.692A6.883,6.883,0,0,1,8.7,1.875a13.421,13.421,0,0,1,3.476.5A3.862,3.862,0,0,1,12.933.637,15.5,15.5,0,0,0,8.7,0,8.7,8.7,0,0,0,2.37,2.366C.078,4.658-.579,8.253.519,12.487A21.125,21.125,0,0,0,1.785,16,21.117,21.117,0,0,0,.519,19.513c-1.1,4.235-.44,7.829,1.851,10.121A8.708,8.708,0,0,0,8.7,32,17.788,17.788,0,0,0,16,30.217,17.79,17.79,0,0,0,23.3,32a8.707,8.707,0,0,0,6.332-2.366c2.291-2.292,2.949-5.886,1.851-10.121A21.1,21.1,0,0,0,30.214,16" transform="translate(0)" fill="#fff"/>
          <path id="Path_85588" data-name="Path 85588" d="M128.64,110.615l-4.994-2.55a.844.844,0,0,0-.768,0l-4.994,2.55,5.377,3.138Zm-11.207,8.449,4.985,2.909v-6.757l-5.4-3.153v6.272a.845.845,0,0,0,.419.73m6.674,2.909,4.985-2.909a.845.845,0,0,0,.419-.73v-6.272l-5.4,3.153Z" transform="translate(-107.263 -98.973)" fill="#fff"/>
        </g>
      </g>
    </g>
  </g>
</svg>
